HIERARCHY
ROOT pelvis
{
  OFFSET 0 100 0
  CHANNELS 6 Xposition Yposition Zposition Zrotation Xrotation Yrotation
  JOINT pelvis_right_femur
  {
    OFFSET -10.78128 -3.44521 -0.5502486
    CHANNELS 3 Zrotation Xrotation Yrotation
    JOINT right_femur_tibia
    {
      OFFSET -0.8047443 -44.0398 -0.1307829
      CHANNELS 3 Zrotation Xrotation Yrotation
      JOINT right_tibia_foot
      {
        OFFSET 3.006224 -47.83518 -5
        CHANNELS 3 Zrotation Xrotation Yrotation
        End Site
        {
          OFFSET 0 -5 15
        }
      }
    }
  }
  JOINT pelvis_left_femur
  {
    OFFSET 10.78128 -3.44521 -0.5502486
    CHANNELS 3 Zrotation Xrotation Yrotation
    JOINT left_femur_tibia
    {
      OFFSET 0.8047443 -44.0398 -0.1307829
      CHANNELS 3 Zrotation Xrotation Yrotation
      JOINT left_tibia_foot
      {
        OFFSET -4.370144 -48.10324 -4.275266
        CHANNELS 3 Zrotation Xrotation Yrotation
        End Site
        {
          OFFSET 0 -5 15
        }
      }
    }
  }
  JOINT pelvis_spine1
  {
    OFFSET 0 6.468898 -3.129235
    CHANNELS 3 Zrotation Xrotation Yrotation
    JOINT spine1
    {
      OFFSET 0 23.15396 4.99043
      CHANNELS 3 Zrotation Xrotation Yrotation
      JOINT spine2
      {
        OFFSET 0 20.79997 -5.064912
        CHANNELS 3 Zrotation Xrotation Yrotation
        JOINT neck
        {
          OFFSET 0 14.38658 9.616178
          CHANNELS 3 Zrotation Xrotation Yrotation
          End Site
          {
            OFFSET 0 20 0
          }
        }
      }
      JOINT right_manubrium
      {
        OFFSET -5.722621 16.35077 3.967754
        CHANNELS 3 Zrotation Xrotation Yrotation
        JOINT right_clavicle
        {
          OFFSET -13.16364 1.694482 -4.693211
          CHANNELS 3 Zrotation Xrotation Yrotation
          JOINT right_humerus
          {
            OFFSET -28.5034 -0.3100689 -2.792744
            CHANNELS 3 Zrotation Xrotation Yrotation
            JOINT right_radius
            {
              OFFSET -25.15693 0.02248979 -1.271978
              CHANNELS 3 Zrotation Xrotation Yrotation
              End Site
              {
                OFFSET -15 0 0
              }
            }
          }
        }
      }
      JOINT left_manubrium
      {
        OFFSET 5.722621 16.35077 3.967754
        CHANNELS 3 Zrotation Xrotation Yrotation
        JOINT left_clavicle
        {
          OFFSET 13.16364 1.694482 -4.693211
          CHANNELS 3 Zrotation Xrotation Yrotation
          JOINT left_humerus
          {
            OFFSET 29.39168 -1.063119 -2.237045
            CHANNELS 3 Zrotation Xrotation Yrotation
            JOINT left_radius
            {
              OFFSET 24.59957 -0.9528479 0.9047498
              CHANNELS 3 Zrotation Xrotation Yrotation
              End Site
              {
                OFFSET 15 -0 -0
              }
            }
          }
        }
      }
    }
  }
}
MOTION
Frames: 9
Frame Time: 0.0416666666667
-228.2781 -29.64971 242.8788 -16.92551 29.60249 -156.7483 4.103079 64.85629 2.813714 -0 34.45943 -0 13.60659 -2.321772 -7.116513 20.83696 -53.66524 25.53346 -180 65.98051 -180 -18.66988 15.21103 30.65466 0.1914901 7.830407 13.54927 -8.282865 15.64652 7.024533 5.127365 27.36358 1.165227 3.099504 -1.349601 3.181366 -3.441439 -20.27687 13.3295 88.73838 2.992959 2.988315 -0 0 26.26053 -48.67058 13.77253 19.57308 3.768973 -9.904197 -8.92947 -92.68573 3.277506 19.73046 -0 0 7.752645 -0.2282839 -4.077652 6.501979
-230.8863 -29.38285 236.0966 -15.40323 30.36724 -159.7937 4.103079 64.85629 2.813714 -0 34.45943 -0 13.60659 -2.321772 -7.116513 20.83696 -53.66524 25.53346 -180 65.98051 -180 -18.66988 15.21103 30.65466 0.1914901 7.830407 13.54928 -8.282865 15.64652 7.024533 5.127365 27.36358 1.165227 3.099504 -1.3496 3.181366 -3.441439 -20.27687 13.3295 88.73838 2.99296 2.988315 -0 0 26.26053 -48.67058 13.77253 19.57308 3.768973 -9.904197 -8.929471 -92.68573 3.277506 19.73046 -0 0 7.752645 -0.2282841 -4.077653 6.50198
-233.1666 -29.116 229.1973 -13.82416 31.06031 -162.8847 4.103078 64.8563 2.813715 -0 34.45943 -0 13.60659 -2.321771 -7.116513 20.83696 -53.66524 25.53346 -180 65.98051 -180 -18.66988 15.21104 30.65466 0.1914902 7.830407 13.54927 -8.282865 15.64652 7.024533 5.127365 27.36358 1.165227 3.099505 -1.349601 3.181366 -3.441439 -20.27687 13.3295 88.73838 2.99296 2.988315 -0 0 26.26053 -48.67058 13.77253 19.57308 3.768972 -9.904196 -8.929471 -92.68573 3.277506 19.73046 -0 0 7.752646 -0.2282842 -4.077652 6.501979
-235.1137 -28.84914 222.1966 -12.19245 31.67864 -166.0187 4.103078 64.85629 2.813715 -0 34.45943 -0 13.60659 -2.321772 -7.116513 20.83696 -53.66524 25.53346 -180 65.98051 -180 -18.66988 15.21104 30.65466 0.1914902 7.830407 13.54927 -8.282865 15.64652 7.024533 5.127365 27.36358 1.165227 3.099505 -1.3496 3.181366 -3.441439 -20.27687 13.3295 88.73838 2.99296 2.988314 -0 0 26.26053 -48.67058 13.77253 19.57308 3.768973 -9.904198 -8.929471 -92.68573 3.277506 19.73046 -0 0 7.752645 -0.2282836 -4.077653 6.50198
-236.7231 -28.58229 215.1107 -10.51292 32.2194 -169.192 4.103078 64.8563 2.813715 -0 34.45943 -0 13.60659 -2.321772 -7.116513 20.83696 -53.66524 25.53346 -180 65.98051 -180 -18.66988 15.21104 30.65466 0.1914901 7.830407 13.54928 -8.282865 15.64652 7.024533 5.127365 27.36358 1.165227 3.099504 -1.349601 3.181366 -3.441439 -20.27687 13.3295 88.73838 2.992959 2.988315 -0 0 26.26053 -48.67058 13.77253 19.57308 3.768972 -9.904199 -8.929471 -92.68573 3.277505 19.73046 -0 0 7.752645 -0.2282837 -4.077652 6.50198
-237.9912 -28.31543 207.9558 -8.791075 32.67998 -172.4004 4.103078 64.85629 2.813715 -0 34.45943 -0 13.60659 -2.321772 -7.116514 20.83696 -53.66524 25.53346 -180 65.9805 -180 -18.66988 15.21104 30.65466 0.1914902 7.830407 13.54927 -8.282865 15.64652 7.024533 5.127365 27.36358 1.165227 3.099504 -1.349601 3.181366 -3.441439 -20.27687 13.3295 88.73838 2.992959 2.988315 -0 0 26.26053 -48.67058 13.77253 19.57308 3.768972 -9.904198 -8.929471 -92.68573 3.277506 19.73046 -0 0 7.752646 -0.2282836 -4.077653 6.50198
-238.915 -28.04857 200.7484 -7.033034 33.05813 -175.6391 4.103078 64.85629 2.813715 -0 34.45943 -0 13.60659 -2.321772 -7.116514 20.83696 -53.66525 25.53346 -180 65.98051 -180 -18.66988 15.21104 30.65466 0.1914901 7.830407 13.54927 -8.282865 15.64652 7.024533 5.127365 27.36358 1.165227 3.099505 -1.349601 3.181366 -3.441439 -20.27687 13.3295 88.73838 2.992959 2.988315 -0 0 26.26053 -48.67058 13.77253 19.57308 3.768972 -9.904198 -8.929471 -92.68573 3.277505 19.73046 -0 0 7.752647 -0.2282841 -4.077653 6.50198
-239.4924 -27.78172 193.505 -5.245486 33.35192 -178.9026 4.103078 64.85629 2.813715 -0 34.45943 -0 13.60659 -2.321772 -7.116513 20.83696 -53.66525 25.53346 -180 65.98051 -180 -18.66988 15.21104 30.65466 0.1914902 7.830407 13.54927 -8.282865 15.64652 7.024533 5.127365 27.36358 1.165227 3.099505 -1.349601 3.181366 -3.441439 -20.27687 13.3295 88.73838 2.992959 2.988315 -0 0 26.26053 -48.67058 13.77253 19.57308 3.768973 -9.904197 -8.929471 -92.68573 3.277505 19.73046 -0 0 7.752645 -0.2282838 -4.077652 6.50198
-239.7221 -27.51486 186.2423 -3.435603 33.55983 177.8151 4.103079 64.85629 2.813714 -0 34.45943 -0 13.60659 -2.321772 -7.116513 20.83695 -53.66524 25.53346 -180 65.98051 -180 -18.66988 15.21104 30.65466 0.1914903 7.830406 13.54927 -8.282865 15.64652 7.024533 5.127365 27.36358 1.165227 3.099505 -1.3496 3.181366 -3.441439 -20.27687 13.3295 88.73838 2.992959 2.988315 -0 0 26.26053 -48.67058 13.77253 19.57308 3.768973 -9.904199 -8.929471 -92.68573 3.277506 19.73046 -0 0 7.752645 -0.2282835 -4.077652 6.50198
